<mxfile host="65bd71144e">
    <diagram id="R2lEEEUBdFMjLlhIrx00" name="Page-1">
        <mxGraphModel dx="1558" dy="1022" grid="1" gridSize="10" guides="1" tooltips="1" connect="1" arrows="1" fold="1" page="1" pageScale="1" pageWidth="1100" pageHeight="850" math="0" shadow="0" extFonts="Permanent Marker^https://fonts.googleapis.com/css?family=Permanent+Marker">
            <root>
                <mxCell id="0"/>
                <mxCell id="1" parent="0"/>
                <mxCell id="lF8kmD1tluEkQYO1DwVj-107" style="edgeStyle=orthogonalEdgeStyle;rounded=1;orthogonalLoop=1;jettySize=auto;html=1;entryX=0.503;entryY=0.978;entryDx=0;entryDy=0;entryPerimeter=0;fontSize=6;fontColor=#333333;startArrow=none;startFill=0;endArrow=openThin;endFill=0;strokeColor=#485A7D;strokeWidth=1;exitX=1.007;exitY=0.45;exitDx=0;exitDy=0;dashed=1;exitPerimeter=0;" parent="1" source="bU0qzXOmjMXZSUoyWyyo-3" target="N-IbD50z_q2hXyC0bmqv-1" edge="1">
                    <mxGeometry relative="1" as="geometry"/>
                </mxCell>
                <mxCell id="lF8kmD1tluEkQYO1DwVj-26" value="&lt;h3 style=&quot;font-size: 14px;&quot;&gt;Hub Core&lt;/h3&gt;" style="rounded=1;whiteSpace=wrap;html=1;fontSize=14;verticalAlign=top;strokeColor=#A3A3A3;fillColor=#CDD0D1;gradientColor=#ffffff;" parent="1" vertex="1">
                    <mxGeometry x="270" y="110" width="310" height="430" as="geometry"/>
                </mxCell>
                <mxCell id="lF8kmD1tluEkQYO1DwVj-121" style="edgeStyle=orthogonalEdgeStyle;rounded=1;orthogonalLoop=1;jettySize=auto;html=1;entryX=0.5;entryY=1;entryDx=0;entryDy=0;dashed=1;fontSize=6;fontColor=#333333;startArrow=none;startFill=0;endArrow=openThin;endFill=0;strokeColor=#485A7D;strokeWidth=1;" parent="1" source="N-IbD50z_q2hXyC0bmqv-1" target="lF8kmD1tluEkQYO1DwVj-119" edge="1">
                    <mxGeometry relative="1" as="geometry"/>
                </mxCell>
                <mxCell id="N-IbD50z_q2hXyC0bmqv-1" value="Internet firewall" style="aspect=fixed;html=1;points=[];align=center;image;fontSize=9;image=img/lib/mscae/Azure_Firewall.svg;" parent="1" vertex="1">
                    <mxGeometry x="620" y="105" width="50" height="50" as="geometry"/>
                </mxCell>
                <mxCell id="N-IbD50z_q2hXyC0bmqv-20" value="&lt;font style=&quot;font-size: 9px&quot;&gt;Admin/User&lt;/font&gt;" style="aspect=fixed;html=1;points=[];align=center;image;fontSize=9;image=img/lib/azure2/management_governance/User_Privacy.svg;" parent="1" vertex="1">
                    <mxGeometry x="680" y="327.74" width="28.24" height="30" as="geometry"/>
                </mxCell>
                <mxCell id="lF8kmD1tluEkQYO1DwVj-56" style="edgeStyle=orthogonalEdgeStyle;rounded=1;orthogonalLoop=1;jettySize=auto;html=1;entryX=1;entryY=0.5;entryDx=0;entryDy=0;fontSize=6;fontColor=#333333;startArrow=openThin;startFill=0;endArrow=openThin;endFill=0;strokeColor=#485A7D;exitX=0.115;exitY=0.237;exitDx=0;exitDy=0;exitPerimeter=0;strokeWidth=2;" parent="1" source="N-IbD50z_q2hXyC0bmqv-24" target="lF8kmD1tluEkQYO1DwVj-37" edge="1">
                    <mxGeometry relative="1" as="geometry"/>
                </mxCell>
                <mxCell id="N-IbD50z_q2hXyC0bmqv-24" value="MQTT Message Bus" style="html=1;fillColor=#CCCCCC;gradientColor=none;gradientDirection=north;strokeWidth=2;shape=mxgraph.networks.bus;gradientColor=none;gradientDirection=north;fontColor=#ffffff;perimeter=backbonePerimeter;backboneSize=20;rotation=-90;strokeColor=#485A7D;" parent="1" vertex="1">
                    <mxGeometry x="264.94" y="272.93" width="270.16" height="39" as="geometry"/>
                </mxCell>
                <mxCell id="N-IbD50z_q2hXyC0bmqv-25" value="" style="edgeStyle=none;rounded=0;endArrow=openThin;html=1;strokeWidth=2;entryX=0.842;entryY=0.222;entryDx=0;entryDy=0;entryPerimeter=0;exitX=0.997;exitY=0.729;exitDx=0;exitDy=0;strokeColor=#485A7D;startArrow=openThin;startFill=0;endFill=0;exitPerimeter=0;" parent="1" source="lF8kmD1tluEkQYO1DwVj-42" target="N-IbD50z_q2hXyC0bmqv-24" edge="1">
                    <mxGeometry relative="1" as="geometry">
                        <mxPoint x="320" y="199" as="sourcePoint"/>
                    </mxGeometry>
                </mxCell>
                <mxCell id="N-IbD50z_q2hXyC0bmqv-26" value="" style="edgeStyle=none;rounded=0;endArrow=openThin;html=1;strokeWidth=2;entryX=0.115;entryY=0.222;entryDx=0;entryDy=0;entryPerimeter=0;exitX=1;exitY=0.5;exitDx=0;exitDy=0;strokeColor=#485A7D;startArrow=openThin;startFill=0;endFill=0;" parent="1" source="lF8kmD1tluEkQYO1DwVj-50" target="N-IbD50z_q2hXyC0bmqv-24" edge="1">
                    <mxGeometry relative="1" as="geometry">
                        <mxPoint x="320" y="241" as="sourcePoint"/>
                    </mxGeometry>
                </mxCell>
                <mxCell id="N-IbD50z_q2hXyC0bmqv-27" value="" style="edgeStyle=none;rounded=0;endArrow=none;html=1;strokeWidth=2;entryX=0.546;entryY=0.764;entryDx=0;entryDy=0;entryPerimeter=0;strokeColor=#485A7D;exitX=1;exitY=0.396;exitDx=0;exitDy=0;exitPerimeter=0;" parent="1" source="lF8kmD1tluEkQYO1DwVj-26" target="N-IbD50z_q2hXyC0bmqv-24" edge="1">
                    <mxGeometry relative="1" as="geometry">
                        <mxPoint x="510" y="193" as="sourcePoint"/>
                        <Array as="points"/>
                    </mxGeometry>
                </mxCell>
                <mxCell id="N-IbD50z_q2hXyC0bmqv-28" value="" style="edgeStyle=none;rounded=0;endArrow=none;html=1;strokeWidth=2;entryX=0.692;entryY=0.737;entryDx=0;entryDy=0;entryPerimeter=0;strokeColor=#485A7D;" parent="1" target="N-IbD50z_q2hXyC0bmqv-24" edge="1">
                    <mxGeometry relative="1" as="geometry">
                        <mxPoint x="510" y="241" as="sourcePoint"/>
                        <Array as="points">
                            <mxPoint x="440" y="241"/>
                        </Array>
                    </mxGeometry>
                </mxCell>
                <mxCell id="N-IbD50z_q2hXyC0bmqv-30" value="" style="edgeStyle=none;rounded=0;endArrow=none;html=1;strokeWidth=2;exitX=0;exitY=0.5;exitDx=0;exitDy=0;startArrow=openThin;startFill=0;strokeColor=#485A7D;" parent="1" source="lF8kmD1tluEkQYO1DwVj-8" target="N-IbD50z_q2hXyC0bmqv-24" edge="1">
                    <mxGeometry relative="1" as="geometry">
                        <mxPoint x="370" y="350" as="sourcePoint"/>
                    </mxGeometry>
                </mxCell>
                <mxCell id="N-IbD50z_q2hXyC0bmqv-31" value="" style="edgeStyle=none;rounded=0;endArrow=none;html=1;strokeWidth=2;strokeColor=#485A7D;" parent="1" target="N-IbD50z_q2hXyC0bmqv-24" edge="1">
                    <mxGeometry relative="1" as="geometry">
                        <mxPoint x="510" y="320" as="sourcePoint"/>
                        <Array as="points">
                            <mxPoint x="420" y="320"/>
                        </Array>
                    </mxGeometry>
                </mxCell>
                <mxCell id="lF8kmD1tluEkQYO1DwVj-3" value="" style="group;strokeColor=#485A7D;" parent="1" vertex="1" connectable="0">
                    <mxGeometry x="375.01" y="460" width="50" height="40" as="geometry"/>
                </mxCell>
                <mxCell id="lF8kmD1tluEkQYO1DwVj-1" value="&lt;font style=&quot;font-size: 8px&quot;&gt;&lt;sub&gt;mosquittomgr&lt;/sub&gt;&lt;/font&gt;" style="shape=process;whiteSpace=wrap;html=1;backgroundOutline=1;align=center;verticalAlign=bottom;fontColor=#485A7D;strokeColor=#485A7D;" parent="lF8kmD1tluEkQYO1DwVj-3" vertex="1">
                    <mxGeometry width="50" height="40" as="geometry"/>
                </mxCell>
                <mxCell id="lF8kmD1tluEkQYO1DwVj-61" value="" style="verticalLabelPosition=bottom;html=1;verticalAlign=top;align=center;strokeColor=none;fillColor=#00BEF2;shape=mxgraph.azure.cloud_services_configuration_file;pointerEvents=1;fontSize=5;fontColor=#333333;" parent="lF8kmD1tluEkQYO1DwVj-3" vertex="1">
                    <mxGeometry x="15.009999999999991" y="7.899999999999977" width="20" height="20" as="geometry"/>
                </mxCell>
                <mxCell id="lF8kmD1tluEkQYO1DwVj-15" style="edgeStyle=orthogonalEdgeStyle;rounded=1;orthogonalLoop=1;jettySize=auto;html=1;fontSize=8;entryX=0.009;entryY=0.493;entryDx=0;entryDy=0;entryPerimeter=0;shape=link;strokeColor=#485A7D;" parent="1" source="lF8kmD1tluEkQYO1DwVj-1" target="N-IbD50z_q2hXyC0bmqv-24" edge="1">
                    <mxGeometry relative="1" as="geometry"/>
                </mxCell>
                <mxCell id="lF8kmD1tluEkQYO1DwVj-16" value="&lt;font style=&quot;font-size: 8px&quot;&gt;MQTT Message bus manager&lt;/font&gt;" style="text;html=1;strokeColor=none;fillColor=none;align=center;verticalAlign=middle;whiteSpace=wrap;rounded=0;fontSize=8;fontColor=#333333;" parent="1" vertex="1">
                    <mxGeometry x="370" y="500" width="60" height="20" as="geometry"/>
                </mxCell>
                <mxCell id="lF8kmD1tluEkQYO1DwVj-17" value="" style="group;fontColor=#485A7D;" parent="1" vertex="1" connectable="0">
                    <mxGeometry x="300" y="130" width="50" height="40" as="geometry"/>
                </mxCell>
                <mxCell id="lF8kmD1tluEkQYO1DwVj-18" value="&lt;font style=&quot;font-size: 8px&quot; color=&quot;#666666&quot;&gt;&lt;sub&gt;idprov&lt;/sub&gt;&lt;/font&gt;" style="shape=process;whiteSpace=wrap;html=1;backgroundOutline=1;align=center;verticalAlign=bottom;strokeColor=#485A7D;fillColor=none;" parent="lF8kmD1tluEkQYO1DwVj-17" vertex="1">
                    <mxGeometry width="50" height="40" as="geometry"/>
                </mxCell>
                <mxCell id="lF8kmD1tluEkQYO1DwVj-21" value="" style="outlineConnect=0;fontColor=#232F3E;gradientColor=none;fillColor=#C7131F;strokeColor=none;dashed=0;verticalLabelPosition=bottom;verticalAlign=top;align=center;html=1;fontSize=12;fontStyle=0;aspect=fixed;pointerEvents=1;shape=mxgraph.aws4.certificate_manager_2;" parent="lF8kmD1tluEkQYO1DwVj-17" vertex="1">
                    <mxGeometry x="11" y="5.7900000000000205" width="28" height="25.85" as="geometry"/>
                </mxCell>
                <mxCell id="lF8kmD1tluEkQYO1DwVj-25" value="&lt;font style=&quot;font-size: 8px&quot; color=&quot;#333333&quot;&gt;IoT Device Provisioning&lt;/font&gt;" style="text;html=1;strokeColor=none;fillColor=none;align=center;verticalAlign=middle;whiteSpace=wrap;rounded=0;fontSize=8;fontColor=#485A7D;" parent="1" vertex="1">
                    <mxGeometry x="295" y="174.5" width="60" height="15" as="geometry"/>
                </mxCell>
                <mxCell id="lF8kmD1tluEkQYO1DwVj-33" style="edgeStyle=orthogonalEdgeStyle;rounded=1;orthogonalLoop=1;jettySize=auto;html=1;exitX=1;exitY=0.5;exitDx=0;exitDy=0;entryX=0;entryY=0.5;entryDx=0;entryDy=0;fontSize=14;endArrow=classicThin;endFill=1;strokeColor=#485A7D;" parent="1" source="lF8kmD1tluEkQYO1DwVj-1" target="N-IbD50z_q2hXyC0bmqv-35" edge="1">
                    <mxGeometry relative="1" as="geometry"/>
                </mxCell>
                <mxCell id="lF8kmD1tluEkQYO1DwVj-34" style="edgeStyle=orthogonalEdgeStyle;rounded=1;orthogonalLoop=1;jettySize=auto;html=1;exitX=0;exitY=0.75;exitDx=0;exitDy=0;entryX=0.5;entryY=0;entryDx=0;entryDy=0;fontSize=14;endArrow=openThin;endFill=0;strokeColor=#485A7D;" parent="1" source="lF8kmD1tluEkQYO1DwVj-8" target="N-IbD50z_q2hXyC0bmqv-35" edge="1">
                    <mxGeometry relative="1" as="geometry"/>
                </mxCell>
                <mxCell id="lF8kmD1tluEkQYO1DwVj-44" style="edgeStyle=orthogonalEdgeStyle;rounded=1;orthogonalLoop=1;jettySize=auto;html=1;exitX=1.003;exitY=0.273;exitDx=0;exitDy=0;entryX=0;entryY=0.5;entryDx=0;entryDy=0;fontSize=14;startArrow=classicThin;startFill=1;endArrow=classicThin;endFill=1;strokeColor=#666666;exitPerimeter=0;" parent="1" source="lF8kmD1tluEkQYO1DwVj-42" target="lF8kmD1tluEkQYO1DwVj-18" edge="1">
                    <mxGeometry relative="1" as="geometry"/>
                </mxCell>
                <mxCell id="lF8kmD1tluEkQYO1DwVj-53" value="discovery &amp;amp; &lt;br&gt;provisioning" style="edgeLabel;html=1;align=center;verticalAlign=middle;resizable=0;points=[];fontSize=6;fontColor=#333333;" parent="lF8kmD1tluEkQYO1DwVj-44" vertex="1" connectable="0">
                    <mxGeometry x="-0.5295" y="-1" relative="1" as="geometry">
                        <mxPoint y="-14" as="offset"/>
                    </mxGeometry>
                </mxCell>
                <mxCell id="lF8kmD1tluEkQYO1DwVj-45" value="" style="outlineConnect=0;dashed=0;verticalLabelPosition=bottom;verticalAlign=top;align=center;html=1;shape=mxgraph.aws3.certificate;fillColor=#5294CF;gradientColor=none;fontSize=14;strokeColor=#A3A3A3;" parent="1" vertex="1">
                    <mxGeometry x="216.82" y="150" width="17" height="20" as="geometry"/>
                </mxCell>
                <mxCell id="lF8kmD1tluEkQYO1DwVj-47" value="&lt;font style=&quot;font-size: 6px&quot; color=&quot;#333333&quot;&gt;Certificate authentication&lt;/font&gt;" style="text;html=1;strokeColor=none;fillColor=none;align=center;verticalAlign=middle;whiteSpace=wrap;rounded=0;fontSize=8;" parent="1" vertex="1">
                    <mxGeometry x="206.82" y="177.5" width="37" height="15" as="geometry"/>
                </mxCell>
                <mxCell id="lF8kmD1tluEkQYO1DwVj-54" value="&lt;font color=&quot;#485a7d&quot;&gt;publish/subscribe&lt;/font&gt;" style="edgeLabel;html=1;align=center;verticalAlign=middle;resizable=0;points=[];fontSize=6;" parent="1" vertex="1" connectable="0">
                    <mxGeometry x="230" y="210" as="geometry">
                        <mxPoint x="-2" as="offset"/>
                    </mxGeometry>
                </mxCell>
                <mxCell id="lF8kmD1tluEkQYO1DwVj-55" value="" style="group" parent="1" vertex="1" connectable="0">
                    <mxGeometry x="505" y="360" width="60" height="58" as="geometry"/>
                </mxCell>
                <mxCell id="lF8kmD1tluEkQYO1DwVj-9" value="" style="group" parent="lF8kmD1tluEkQYO1DwVj-55" vertex="1" connectable="0">
                    <mxGeometry x="15" width="40" height="40" as="geometry"/>
                </mxCell>
                <mxCell id="lF8kmD1tluEkQYO1DwVj-8" value="&lt;font&gt;thingdir&lt;/font&gt;" style="shape=process;whiteSpace=wrap;html=1;backgroundOutline=1;gradientColor=none;verticalAlign=bottom;fillColor=none;fontSize=8;fontColor=#003366;strokeColor=#485A7D;" parent="lF8kmD1tluEkQYO1DwVj-9" vertex="1">
                    <mxGeometry x="-10" width="50" height="40" as="geometry"/>
                </mxCell>
                <mxCell id="lF8kmD1tluEkQYO1DwVj-7" value="" style="aspect=fixed;perimeter=ellipsePerimeter;html=1;align=center;shadow=0;dashed=0;spacingTop=3;image;image=img/lib/active_directory/active_directory.svg;fillColor=#5E5E5E;gradientColor=none;" parent="lF8kmD1tluEkQYO1DwVj-9" vertex="1">
                    <mxGeometry x="2" y="5" width="24.62" height="20.93" as="geometry"/>
                </mxCell>
                <mxCell id="lF8kmD1tluEkQYO1DwVj-13" value="&lt;font style=&quot;font-size: 8px&quot; color=&quot;#333333&quot;&gt;Thing Directory Service&lt;/font&gt;" style="text;html=1;strokeColor=none;fillColor=none;align=center;verticalAlign=middle;whiteSpace=wrap;rounded=0;fontSize=8;fontColor=#666666;" parent="lF8kmD1tluEkQYO1DwVj-55" vertex="1">
                    <mxGeometry y="43" width="60" height="15" as="geometry"/>
                </mxCell>
                <mxCell id="lF8kmD1tluEkQYO1DwVj-2" value="" style="group;fontColor=#485A7D;" parent="1" vertex="1" connectable="0">
                    <mxGeometry x="455" y="460" width="50" height="40" as="geometry"/>
                </mxCell>
                <mxCell id="N-IbD50z_q2hXyC0bmqv-35" value="&lt;font style=&quot;font-size: 8px&quot; color=&quot;#485a7d&quot;&gt;&lt;sub&gt;hubauth&lt;/sub&gt;&lt;/font&gt;" style="shape=process;whiteSpace=wrap;html=1;backgroundOutline=1;align=center;verticalAlign=bottom;" parent="lF8kmD1tluEkQYO1DwVj-2" vertex="1">
                    <mxGeometry width="50" height="40" as="geometry"/>
                </mxCell>
                <mxCell id="N-IbD50z_q2hXyC0bmqv-36" value="" style="pointerEvents=1;shadow=0;dashed=0;html=1;strokeColor=none;labelPosition=center;verticalLabelPosition=bottom;verticalAlign=top;outlineConnect=0;align=center;shape=mxgraph.office.security.lock_unprotected;fillColor=#DA4026;" parent="lF8kmD1tluEkQYO1DwVj-2" vertex="1">
                    <mxGeometry x="17.4" y="10" width="15.21" height="15.79" as="geometry"/>
                </mxCell>
                <mxCell id="lF8kmD1tluEkQYO1DwVj-12" value="&lt;font style=&quot;font-size: 8px&quot; color=&quot;#333333&quot;&gt;Authentication &amp;amp; Authorization&lt;/font&gt;" style="text;html=1;strokeColor=none;fillColor=none;align=center;verticalAlign=middle;whiteSpace=wrap;rounded=0;fontSize=8;" parent="1" vertex="1">
                    <mxGeometry x="450" y="500" width="60" height="20" as="geometry"/>
                </mxCell>
                <mxCell id="lF8kmD1tluEkQYO1DwVj-65" value="" style="group" parent="1" vertex="1" connectable="0">
                    <mxGeometry x="510" y="300" width="50" height="40" as="geometry"/>
                </mxCell>
                <mxCell id="lF8kmD1tluEkQYO1DwVj-63" value="" style="aspect=fixed;perimeter=ellipsePerimeter;html=1;align=center;shadow=0;dashed=0;spacingTop=3;image;image=img/lib/active_directory/web_server.svg;fontSize=5;fontColor=#333333;strokeColor=#485A7D;fillColor=none;gradientColor=none;" parent="lF8kmD1tluEkQYO1DwVj-65" vertex="1">
                    <mxGeometry x="17.5" y="4.6299999999999955" width="15" height="18.75" as="geometry"/>
                </mxCell>
                <mxCell id="lF8kmD1tluEkQYO1DwVj-64" value="&lt;font&gt;hubview&lt;br&gt;&lt;/font&gt;" style="shape=process;whiteSpace=wrap;html=1;backgroundOutline=1;gradientColor=none;verticalAlign=bottom;fillColor=none;fontSize=8;fontColor=#003366;strokeColor=#485A7D;" parent="lF8kmD1tluEkQYO1DwVj-65" vertex="1">
                    <mxGeometry width="50" height="40" as="geometry"/>
                </mxCell>
                <mxCell id="lF8kmD1tluEkQYO1DwVj-67" style="edgeStyle=orthogonalEdgeStyle;rounded=1;orthogonalLoop=1;jettySize=auto;html=1;entryX=0.5;entryY=0;entryDx=0;entryDy=0;fontSize=5;fontColor=#333333;startArrow=none;startFill=0;endArrow=openThin;endFill=0;strokeWidth=1;strokeColor=#485A7D;" parent="1" source="lF8kmD1tluEkQYO1DwVj-64" target="lF8kmD1tluEkQYO1DwVj-8" edge="1">
                    <mxGeometry relative="1" as="geometry"/>
                </mxCell>
                <mxCell id="lF8kmD1tluEkQYO1DwVj-68" style="edgeStyle=orthogonalEdgeStyle;rounded=1;orthogonalLoop=1;jettySize=auto;html=1;exitX=0;exitY=0.75;exitDx=0;exitDy=0;entryX=0.25;entryY=0;entryDx=0;entryDy=0;fontSize=5;fontColor=#333333;startArrow=none;startFill=0;endArrow=openThin;endFill=0;strokeColor=#485A7D;strokeWidth=1;" parent="1" source="lF8kmD1tluEkQYO1DwVj-64" target="N-IbD50z_q2hXyC0bmqv-35" edge="1">
                    <mxGeometry relative="1" as="geometry"/>
                </mxCell>
                <mxCell id="bU0qzXOmjMXZSUoyWyyo-9" style="edgeStyle=orthogonalEdgeStyle;rounded=0;orthogonalLoop=1;jettySize=auto;html=1;entryX=0;entryY=0.5;entryDx=0;entryDy=0;entryPerimeter=0;endArrow=none;endFill=0;startArrow=openThin;startFill=0;" parent="1" source="lF8kmD1tluEkQYO1DwVj-72" target="bU0qzXOmjMXZSUoyWyyo-8" edge="1">
                    <mxGeometry relative="1" as="geometry"/>
                </mxCell>
                <mxCell id="lF8kmD1tluEkQYO1DwVj-72" value="&lt;font&gt;hubscript&lt;br&gt;&lt;/font&gt;" style="shape=process;whiteSpace=wrap;html=1;backgroundOutline=1;gradientColor=none;verticalAlign=bottom;fillColor=none;fontSize=8;fontColor=#003366;strokeColor=#485A7D;" parent="1" vertex="1">
                    <mxGeometry x="510" y="220" width="50" height="40" as="geometry"/>
                </mxCell>
                <mxCell id="lF8kmD1tluEkQYO1DwVj-77" style="edgeStyle=orthogonalEdgeStyle;rounded=1;orthogonalLoop=1;jettySize=auto;html=1;entryX=1;entryY=0.5;entryDx=0;entryDy=0;fontSize=5;fontColor=#333333;startArrow=none;startFill=0;endArrow=openThin;endFill=0;strokeColor=#485A7D;strokeWidth=1;exitX=0;exitY=0.5;exitDx=0;exitDy=0;exitPerimeter=0;" parent="1" source="lF8kmD1tluEkQYO1DwVj-114" target="lF8kmD1tluEkQYO1DwVj-64" edge="1">
                    <mxGeometry relative="1" as="geometry">
                        <mxPoint x="629.6000000000001" y="327.96186" as="sourcePoint"/>
                    </mxGeometry>
                </mxCell>
                <mxCell id="lF8kmD1tluEkQYO1DwVj-80" value="" style="group;verticalAlign=top;labelPosition=center;verticalLabelPosition=bottom;align=center;" parent="1" vertex="1" connectable="0">
                    <mxGeometry x="80" y="120" width="120" height="135" as="geometry"/>
                </mxCell>
                <mxCell id="lF8kmD1tluEkQYO1DwVj-42" value="&lt;font color=&quot;#5e5e5e&quot; style=&quot;font-size: 14px;&quot;&gt;WoST IoT Devices&lt;/font&gt;" style="rounded=1;whiteSpace=wrap;html=1;fontSize=14;strokeColor=#A3A3A3;fillColor=none;gradientColor=none;verticalAlign=top;labelPosition=center;verticalLabelPosition=bottom;align=center;" parent="lF8kmD1tluEkQYO1DwVj-80" vertex="1">
                    <mxGeometry width="120" height="108" as="geometry"/>
                </mxCell>
                <mxCell id="lF8kmD1tluEkQYO1DwVj-28" value="" style="outlineConnect=0;dashed=0;verticalLabelPosition=bottom;verticalAlign=top;align=center;html=1;shape=mxgraph.aws3.thermostat;fillColor=#5294CF;gradientColor=none;fontSize=14;strokeColor=#A3A3A3;labelPosition=center;" parent="lF8kmD1tluEkQYO1DwVj-80" vertex="1">
                    <mxGeometry x="20" y="64.80000000000001" width="30" height="32.400000000000006" as="geometry"/>
                </mxCell>
                <mxCell id="lF8kmD1tluEkQYO1DwVj-29" value="" style="outlineConnect=0;dashed=0;verticalLabelPosition=bottom;verticalAlign=top;align=center;html=1;shape=mxgraph.aws3.house;fillColor=#5294CF;gradientColor=none;fontSize=14;strokeColor=#A3A3A3;labelPosition=center;" parent="lF8kmD1tluEkQYO1DwVj-80" vertex="1">
                    <mxGeometry x="70" y="21.6" width="30" height="32.400000000000006" as="geometry"/>
                </mxCell>
                <mxCell id="lF8kmD1tluEkQYO1DwVj-30" value="" style="outlineConnect=0;dashed=0;verticalLabelPosition=bottom;verticalAlign=top;align=center;html=1;shape=mxgraph.aws3.camera;fillColor=#5294CF;gradientColor=none;fontSize=14;strokeColor=#A3A3A3;labelPosition=center;" parent="lF8kmD1tluEkQYO1DwVj-80" vertex="1">
                    <mxGeometry x="20" y="21.6" width="30" height="32.400000000000006" as="geometry"/>
                </mxCell>
                <mxCell id="lF8kmD1tluEkQYO1DwVj-31" value="" style="outlineConnect=0;dashed=0;verticalLabelPosition=bottom;verticalAlign=top;align=center;html=1;shape=mxgraph.aws3.windfarm;fillColor=#5294CF;gradientColor=none;fontSize=14;strokeColor=#A3A3A3;labelPosition=center;" parent="lF8kmD1tluEkQYO1DwVj-80" vertex="1">
                    <mxGeometry x="70" y="64.80000000000001" width="30" height="32.400000000000006" as="geometry"/>
                </mxCell>
                <mxCell id="lF8kmD1tluEkQYO1DwVj-82" value="" style="group" parent="1" vertex="1" connectable="0">
                    <mxGeometry x="140" y="293.25" width="60" height="40" as="geometry"/>
                </mxCell>
                <mxCell id="lF8kmD1tluEkQYO1DwVj-83" value="&lt;font style=&quot;font-size: 8px&quot; color=&quot;#5e5e5e&quot;&gt;legacy-pb&lt;/font&gt;" style="shape=process;whiteSpace=wrap;html=1;backgroundOutline=1;fontSize=14;strokeColor=#A3A3A3;fillColor=none;gradientColor=none;verticalAlign=bottom;" parent="lF8kmD1tluEkQYO1DwVj-82" vertex="1">
                    <mxGeometry width="60" height="40" as="geometry"/>
                </mxCell>
                <mxCell id="lF8kmD1tluEkQYO1DwVj-84" value="" style="aspect=fixed;perimeter=ellipsePerimeter;html=1;align=center;shadow=0;dashed=0;fontColor=#4277BB;labelBackgroundColor=#ffffff;fontSize=12;spacingTop=3;image;image=img/lib/ibm/vpc/PublicGateway.svg;strokeColor=#A3A3A3;fillColor=none;gradientColor=none;" parent="lF8kmD1tluEkQYO1DwVj-82" vertex="1">
                    <mxGeometry x="17" y="1" width="27" height="27" as="geometry"/>
                </mxCell>
                <mxCell id="lF8kmD1tluEkQYO1DwVj-85" value="" style="group" parent="1" vertex="1" connectable="0">
                    <mxGeometry x="108.17999999999999" y="440" width="91.82000000000001" height="50" as="geometry"/>
                </mxCell>
                <mxCell id="lF8kmD1tluEkQYO1DwVj-38" value="&lt;font style=&quot;font-size: 8px&quot; color=&quot;#333333&quot;&gt;1-wire gateway&lt;/font&gt;" style="text;html=1;strokeColor=none;fillColor=none;align=center;verticalAlign=middle;whiteSpace=wrap;rounded=0;fontSize=8;" parent="lF8kmD1tluEkQYO1DwVj-85" vertex="1">
                    <mxGeometry x="31.820000000000007" y="40" width="60" height="10" as="geometry"/>
                </mxCell>
                <mxCell id="lF8kmD1tluEkQYO1DwVj-39" value="" style="group" parent="lF8kmD1tluEkQYO1DwVj-85" vertex="1" connectable="0">
                    <mxGeometry x="31.820000000000007" width="60" height="40" as="geometry"/>
                </mxCell>
                <mxCell id="lF8kmD1tluEkQYO1DwVj-37" value="&lt;font style=&quot;font-size: 8px&quot; color=&quot;#5e5e5e&quot;&gt;owserver-pb&lt;/font&gt;" style="shape=process;whiteSpace=wrap;html=1;backgroundOutline=1;fontSize=14;strokeColor=#A3A3A3;verticalAlign=bottom;fillColor=#EBEBEB;gradientColor=#ffffff;" parent="lF8kmD1tluEkQYO1DwVj-39" vertex="1">
                    <mxGeometry width="60" height="40" as="geometry"/>
                </mxCell>
                <mxCell id="lF8kmD1tluEkQYO1DwVj-36" value="" style="aspect=fixed;perimeter=ellipsePerimeter;html=1;align=center;shadow=0;dashed=0;fontColor=#4277BB;labelBackgroundColor=#ffffff;fontSize=12;spacingTop=3;image;image=img/lib/ibm/vpc/PublicGateway.svg;strokeColor=#A3A3A3;fillColor=none;gradientColor=none;" parent="lF8kmD1tluEkQYO1DwVj-39" vertex="1">
                    <mxGeometry x="17" y="1" width="27" height="27" as="geometry"/>
                </mxCell>
                <mxCell id="lF8kmD1tluEkQYO1DwVj-40" value="" style="verticalLabelPosition=bottom;aspect=fixed;html=1;verticalAlign=top;strokeColor=#000000;fillColor=#000000;align=center;outlineConnect=0;shape=mxgraph.fluid_power.x11770;points=[[0,0.5,0]];fontSize=14;flipH=1;" parent="lF8kmD1tluEkQYO1DwVj-85" vertex="1">
                    <mxGeometry x="5" y="11.990000000000009" width="26.82" height="16.02" as="geometry"/>
                </mxCell>
                <mxCell id="lF8kmD1tluEkQYO1DwVj-58" value="&lt;meta charset=&quot;utf-8&quot; style=&quot;font-size: 5px;&quot;&gt;&lt;span style=&quot;color: rgb(0, 0, 0); font-family: helvetica; font-size: 5px; font-style: normal; font-weight: 400; letter-spacing: normal; text-indent: 0px; text-transform: none; word-spacing: 0px; background-color: rgb(248, 249, 250); display: inline; float: none;&quot;&gt;sensors/&lt;/span&gt;&lt;br style=&quot;color: rgb(0, 0, 0); font-family: helvetica; font-size: 5px; font-style: normal; font-weight: 400; letter-spacing: normal; text-indent: 0px; text-transform: none; word-spacing: 0px; background-color: rgb(248, 249, 250);&quot;&gt;&lt;span style=&quot;color: rgb(0, 0, 0); font-family: helvetica; font-size: 5px; font-style: normal; font-weight: 400; letter-spacing: normal; text-indent: 0px; text-transform: none; word-spacing: 0px; background-color: rgb(248, 249, 250); display: inline; float: none;&quot;&gt;actualtors&lt;/span&gt;" style="text;whiteSpace=wrap;html=1;fontSize=5;fontColor=#333333;align=center;verticalAlign=middle;" parent="lF8kmD1tluEkQYO1DwVj-85" vertex="1">
                    <mxGeometry y="30" width="25" height="10" as="geometry"/>
                </mxCell>
                <mxCell id="lF8kmD1tluEkQYO1DwVj-86" value="" style="group" parent="1" vertex="1" connectable="0">
                    <mxGeometry x="76" y="375" width="124" height="50" as="geometry"/>
                </mxCell>
                <mxCell id="lF8kmD1tluEkQYO1DwVj-48" value="&lt;font style=&quot;font-size: 8px&quot; color=&quot;#333333&quot;&gt;zwave gateway&lt;/font&gt;" style="text;html=1;strokeColor=none;fillColor=none;align=center;verticalAlign=middle;whiteSpace=wrap;rounded=0;fontSize=8;" parent="lF8kmD1tluEkQYO1DwVj-86" vertex="1">
                    <mxGeometry x="64" y="40" width="60" height="10" as="geometry"/>
                </mxCell>
                <mxCell id="lF8kmD1tluEkQYO1DwVj-49" value="" style="group" parent="lF8kmD1tluEkQYO1DwVj-86" vertex="1" connectable="0">
                    <mxGeometry x="64" width="60" height="40" as="geometry"/>
                </mxCell>
                <mxCell id="lF8kmD1tluEkQYO1DwVj-50" value="&lt;font style=&quot;font-size: 8px&quot; color=&quot;#5e5e5e&quot;&gt;zwave-pb&lt;/font&gt;" style="shape=process;whiteSpace=wrap;html=1;backgroundOutline=1;fontSize=14;strokeColor=#A3A3A3;verticalAlign=bottom;fillColor=#EBEBEB;gradientColor=#ffffff;" parent="lF8kmD1tluEkQYO1DwVj-49" vertex="1">
                    <mxGeometry width="60" height="40" as="geometry"/>
                </mxCell>
                <mxCell id="lF8kmD1tluEkQYO1DwVj-51" value="" style="aspect=fixed;perimeter=ellipsePerimeter;html=1;align=center;shadow=0;dashed=0;fontColor=#4277BB;labelBackgroundColor=#ffffff;fontSize=12;spacingTop=3;image;image=img/lib/ibm/vpc/PublicGateway.svg;strokeColor=#A3A3A3;fillColor=none;gradientColor=none;" parent="lF8kmD1tluEkQYO1DwVj-49" vertex="1">
                    <mxGeometry x="17" y="1" width="27" height="27" as="geometry"/>
                </mxCell>
                <mxCell id="lF8kmD1tluEkQYO1DwVj-52" value="" style="verticalLabelPosition=bottom;aspect=fixed;html=1;verticalAlign=middle;strokeColor=#000000;fillColor=#000000;align=center;outlineConnect=0;shape=mxgraph.fluid_power.x11770;points=[[0,0.5,0]];fontSize=6;flipH=1;horizontal=1;" parent="lF8kmD1tluEkQYO1DwVj-86" vertex="1">
                    <mxGeometry x="5.359999999999999" y="11.990000000000009" width="26.82" height="16.02" as="geometry"/>
                </mxCell>
                <mxCell id="lF8kmD1tluEkQYO1DwVj-57" value="&lt;meta charset=&quot;utf-8&quot; style=&quot;font-size: 5px;&quot;&gt;&lt;span style=&quot;color: rgb(0, 0, 0); font-family: helvetica; font-size: 5px; font-style: normal; font-weight: 400; letter-spacing: normal; text-indent: 0px; text-transform: none; word-spacing: 0px; background-color: rgb(248, 249, 250); display: inline; float: none;&quot;&gt;sensors/&lt;/span&gt;&lt;br style=&quot;color: rgb(0, 0, 0); font-family: helvetica; font-size: 5px; font-style: normal; font-weight: 400; letter-spacing: normal; text-indent: 0px; text-transform: none; word-spacing: 0px; background-color: rgb(248, 249, 250);&quot;&gt;&lt;span style=&quot;color: rgb(0, 0, 0); font-family: helvetica; font-size: 5px; font-style: normal; font-weight: 400; letter-spacing: normal; text-indent: 0px; text-transform: none; word-spacing: 0px; background-color: rgb(248, 249, 250); display: inline; float: none;&quot;&gt;actualtors&lt;/span&gt;" style="text;whiteSpace=wrap;html=1;fontSize=5;fontColor=#333333;align=center;verticalAlign=middle;" parent="lF8kmD1tluEkQYO1DwVj-86" vertex="1">
                    <mxGeometry y="30" width="26.82" height="10" as="geometry"/>
                </mxCell>
                <mxCell id="lF8kmD1tluEkQYO1DwVj-60" style="edgeStyle=orthogonalEdgeStyle;rounded=1;orthogonalLoop=1;jettySize=auto;html=1;entryX=0;entryY=0.5;entryDx=0;entryDy=0;fontSize=6;fontColor=#333333;startArrow=none;startFill=0;endArrow=none;endFill=0;strokeColor=#485A7D;strokeWidth=1;shape=link;" parent="lF8kmD1tluEkQYO1DwVj-86" source="lF8kmD1tluEkQYO1DwVj-59" target="lF8kmD1tluEkQYO1DwVj-50" edge="1">
                    <mxGeometry relative="1" as="geometry"/>
                </mxCell>
                <mxCell id="lF8kmD1tluEkQYO1DwVj-59" value="&lt;font style=&quot;font-size: 6px&quot;&gt;zwave &lt;br&gt;devices&lt;/font&gt;" style="outlineConnect=0;dashed=0;verticalLabelPosition=bottom;verticalAlign=middle;align=center;html=1;shape=mxgraph.aws3.house;fillColor=#5294CF;gradientColor=none;fontSize=8;strokeColor=#485A7D;fontColor=#333333;" parent="lF8kmD1tluEkQYO1DwVj-86" vertex="1">
                    <mxGeometry x="32.17999999999999" y="9" width="20" height="21.99" as="geometry"/>
                </mxCell>
                <mxCell id="lF8kmD1tluEkQYO1DwVj-88" value="&lt;font color=&quot;#485a7d&quot;&gt;publish/subscribe&lt;/font&gt;" style="edgeLabel;html=1;align=center;verticalAlign=middle;resizable=0;points=[];fontSize=6;" parent="1" vertex="1" connectable="0">
                    <mxGeometry x="230" y="470" as="geometry">
                        <mxPoint x="-2" as="offset"/>
                    </mxGeometry>
                </mxCell>
                <mxCell id="lF8kmD1tluEkQYO1DwVj-89" value="&lt;font color=&quot;#485a7d&quot;&gt;publish/subscribe&lt;/font&gt;" style="edgeLabel;html=1;align=center;verticalAlign=middle;resizable=0;points=[];fontSize=6;" parent="1" vertex="1" connectable="0">
                    <mxGeometry x="228" y="405" as="geometry">
                        <mxPoint x="-2" as="offset"/>
                    </mxGeometry>
                </mxCell>
                <mxCell id="lF8kmD1tluEkQYO1DwVj-90" value="&lt;span style=&quot;color: rgb(51 , 51 , 51) ; font-family: &amp;#34;helvetica&amp;#34; ; font-size: 8px ; font-style: normal ; font-weight: 400 ; letter-spacing: normal ; text-indent: 0px ; text-transform: none ; word-spacing: 0px ; background-color: rgb(248 , 249 , 250) ; display: inline ; float: none&quot;&gt;Legacy Iot Gateway Protocol Binding&lt;br style=&quot;font-size: 8px&quot;&gt;&lt;/span&gt;" style="text;whiteSpace=wrap;html=1;fontSize=8;fontColor=#333333;verticalAlign=middle;align=center;labelPosition=center;verticalLabelPosition=middle;" parent="1" vertex="1">
                    <mxGeometry x="130" y="335.49" width="80" height="14.51" as="geometry"/>
                </mxCell>
                <mxCell id="lF8kmD1tluEkQYO1DwVj-91" value="" style="edgeStyle=none;rounded=0;endArrow=openThin;html=1;strokeWidth=2;strokeColor=#485A7D;startArrow=openThin;startFill=0;endFill=0;" parent="1" target="N-IbD50z_q2hXyC0bmqv-24" edge="1">
                    <mxGeometry relative="1" as="geometry">
                        <mxPoint x="200" y="313" as="sourcePoint"/>
                        <mxPoint x="389.1780000000001" y="313.9716000000001" as="targetPoint"/>
                    </mxGeometry>
                </mxCell>
                <mxCell id="lF8kmD1tluEkQYO1DwVj-104" style="edgeStyle=orthogonalEdgeStyle;rounded=1;orthogonalLoop=1;jettySize=auto;html=1;entryX=0;entryY=0.5;entryDx=0;entryDy=0;fontSize=6;fontColor=#333333;startArrow=openThin;startFill=0;endArrow=openThin;endFill=0;strokeColor=#485A7D;strokeWidth=1;shape=link;" parent="1" source="lF8kmD1tluEkQYO1DwVj-101" target="lF8kmD1tluEkQYO1DwVj-83" edge="1">
                    <mxGeometry relative="1" as="geometry"/>
                </mxCell>
                <mxCell id="lF8kmD1tluEkQYO1DwVj-101" value="" style="outlineConnect=0;dashed=0;verticalLabelPosition=bottom;verticalAlign=top;align=center;html=1;shape=mxgraph.aws3.thermostat;fillColor=#5294CF;gradientColor=none;fontSize=8;fontColor=#333333;strokeColor=#485A7D;" parent="1" vertex="1">
                    <mxGeometry x="100.25" y="303.25" width="19.5" height="20" as="geometry"/>
                </mxCell>
                <mxCell id="lF8kmD1tluEkQYO1DwVj-103" value="&lt;font face=&quot;helvetica&quot; style=&quot;font-size: 6px&quot;&gt;Insecure IoT devices&lt;/font&gt;" style="text;whiteSpace=wrap;html=1;fontSize=6;fontColor=#333333;verticalAlign=middle;align=center;" parent="1" vertex="1">
                    <mxGeometry x="90" y="323.25" width="40" height="22.25" as="geometry"/>
                </mxCell>
                <mxCell id="lF8kmD1tluEkQYO1DwVj-108" value="&lt;font color=&quot;#485a7d&quot;&gt;Web Portal&lt;/font&gt;" style="edgeLabel;html=1;align=center;verticalAlign=middle;resizable=0;points=[];fontSize=6;" parent="1" vertex="1" connectable="0">
                    <mxGeometry x="160" y="185" as="geometry">
                        <mxPoint x="372" y="111" as="offset"/>
                    </mxGeometry>
                </mxCell>
                <mxCell id="lF8kmD1tluEkQYO1DwVj-116" style="edgeStyle=orthogonalEdgeStyle;rounded=1;orthogonalLoop=1;jettySize=auto;html=1;entryX=1;entryY=0.5;entryDx=0;entryDy=0;fontSize=6;fontColor=#333333;startArrow=none;startFill=0;endArrow=openThin;endFill=0;strokeColor=#485A7D;strokeWidth=1;" parent="1" source="lF8kmD1tluEkQYO1DwVj-113" target="lF8kmD1tluEkQYO1DwVj-8" edge="1">
                    <mxGeometry relative="1" as="geometry"/>
                </mxCell>
                <mxCell id="lF8kmD1tluEkQYO1DwVj-118" style="edgeStyle=orthogonalEdgeStyle;rounded=1;orthogonalLoop=1;jettySize=auto;html=1;entryX=1.002;entryY=0.395;entryDx=0;entryDy=0;entryPerimeter=0;fontSize=6;fontColor=#333333;startArrow=openThin;startFill=0;endArrow=none;endFill=0;strokeColor=#485A7D;strokeWidth=1;" parent="1" source="lF8kmD1tluEkQYO1DwVj-113" target="lF8kmD1tluEkQYO1DwVj-26" edge="1">
                    <mxGeometry relative="1" as="geometry">
                        <Array as="points">
                            <mxPoint x="600" y="380"/>
                            <mxPoint x="600" y="280"/>
                        </Array>
                    </mxGeometry>
                </mxCell>
                <mxCell id="lF8kmD1tluEkQYO1DwVj-113" value="" style="verticalLabelPosition=bottom;verticalAlign=top;html=1;shadow=0;dashed=0;strokeWidth=1;shape=mxgraph.android.phone2;strokeColor=#c0c0c0;fontSize=5;fontColor=#333333;fillColor=none;gradientColor=none;" parent="1" vertex="1">
                    <mxGeometry x="635" y="363.75" width="20" height="32.5" as="geometry"/>
                </mxCell>
                <mxCell id="lF8kmD1tluEkQYO1DwVj-117" style="edgeStyle=orthogonalEdgeStyle;rounded=1;orthogonalLoop=1;jettySize=auto;html=1;fontSize=6;fontColor=#333333;startArrow=openThin;startFill=0;endArrow=none;endFill=0;strokeColor=#485A7D;strokeWidth=1;" parent="1" source="lF8kmD1tluEkQYO1DwVj-114" edge="1">
                    <mxGeometry relative="1" as="geometry">
                        <mxPoint x="580" y="280" as="targetPoint"/>
                        <Array as="points">
                            <mxPoint x="600" y="320"/>
                            <mxPoint x="600" y="280"/>
                        </Array>
                    </mxGeometry>
                </mxCell>
                <mxCell id="lF8kmD1tluEkQYO1DwVj-114" value="Web Browser" style="verticalAlign=top;verticalLabelPosition=bottom;labelPosition=center;align=center;html=1;outlineConnect=0;fillColor=#CCCCCC;strokeColor=#6881B3;gradientColor=none;gradientDirection=north;strokeWidth=2;shape=mxgraph.networks.virtual_pc;fontSize=6;fontColor=#333333;" parent="1" vertex="1">
                    <mxGeometry x="625" y="302.51" width="40" height="34.98" as="geometry"/>
                </mxCell>
                <mxCell id="lF8kmD1tluEkQYO1DwVj-115" value="&lt;span style=&quot;color: rgb(72 , 90 , 125) ; font-family: &amp;#34;helvetica&amp;#34; ; font-size: 6px ; font-style: normal ; font-weight: 400 ; letter-spacing: normal ; text-indent: 0px ; text-transform: none ; word-spacing: 0px ; background-color: rgb(255 , 255 , 255) ; display: inline ; float: none&quot;&gt;Mobile App&lt;/span&gt;" style="text;whiteSpace=wrap;html=1;fontSize=6;fontColor=#333333;align=center;verticalAlign=middle;" parent="1" vertex="1">
                    <mxGeometry x="620" y="395" width="40" height="10" as="geometry"/>
                </mxCell>
                <mxCell id="lF8kmD1tluEkQYO1DwVj-119" value="Internet Based WoST Hub" style="rounded=1;whiteSpace=wrap;html=1;fontSize=6;fontColor=#333333;strokeColor=#485A7D;fillColor=none;gradientColor=none;align=center;verticalAlign=top;" parent="1" vertex="1">
                    <mxGeometry x="585" y="16.5" width="120" height="60" as="geometry"/>
                </mxCell>
                <mxCell id="lF8kmD1tluEkQYO1DwVj-120" value="" style="shape=mxgraph.cisco.hubs_and_gateways.small_hub;html=1;pointerEvents=1;dashed=0;fillColor=#036897;strokeColor=#ffffff;strokeWidth=2;verticalLabelPosition=bottom;verticalAlign=top;align=center;outlineConnect=0;fontSize=6;fontColor=#333333;" parent="1" vertex="1">
                    <mxGeometry x="623" y="36" width="45" height="33" as="geometry"/>
                </mxCell>
                <mxCell id="bU0qzXOmjMXZSUoyWyyo-1" value="" style="outlineConnect=0;dashed=0;verticalLabelPosition=bottom;verticalAlign=top;align=center;html=1;shape=mxgraph.aws3.lambda_function;fillColor=#F58534;gradientColor=none;" parent="1" vertex="1">
                    <mxGeometry x="525" y="224" width="20" height="20.69" as="geometry"/>
                </mxCell>
                <mxCell id="bU0qzXOmjMXZSUoyWyyo-2" value="&lt;span style=&quot;color: rgb(72 , 90 , 125) ; font-family: &amp;#34;helvetica&amp;#34; ; font-size: 6px ; font-style: normal ; font-weight: 400 ; letter-spacing: normal ; text-indent: 0px ; text-transform: none ; word-spacing: 0px ; background-color: rgb(255 , 255 , 255) ; display: inline ; float: none&quot;&gt;Script Engine&lt;/span&gt;" style="text;html=1;verticalAlign=middle;align=center;" parent="1" vertex="1">
                    <mxGeometry x="520" y="210" width="30" height="10" as="geometry"/>
                </mxCell>
                <mxCell id="bU0qzXOmjMXZSUoyWyyo-3" value="&lt;font&gt;hubbridge&lt;br&gt;&lt;/font&gt;" style="shape=process;whiteSpace=wrap;html=1;backgroundOutline=1;gradientColor=none;verticalAlign=bottom;fillColor=none;fontSize=8;fontColor=#003366;strokeColor=#485A7D;" parent="1" vertex="1">
                    <mxGeometry x="510" y="165" width="50" height="40" as="geometry"/>
                </mxCell>
                <mxCell id="bU0qzXOmjMXZSUoyWyyo-4" value="&lt;span style=&quot;color: rgb(72 , 90 , 125) ; font-family: &amp;#34;helvetica&amp;#34; ; font-size: 6px ; font-style: normal ; font-weight: 400 ; letter-spacing: normal ; text-indent: 0px ; text-transform: none ; word-spacing: 0px ; background-color: rgb(255 , 255 , 255) ; display: inline ; float: none&quot;&gt;Intermediary&lt;/span&gt;" style="text;html=1;verticalAlign=middle;align=center;" parent="1" vertex="1">
                    <mxGeometry x="520" y="155" width="30" height="10" as="geometry"/>
                </mxCell>
                <mxCell id="bU0qzXOmjMXZSUoyWyyo-5" value="" style="edgeStyle=none;rounded=0;endArrow=none;html=1;strokeWidth=2;strokeColor=#485A7D;exitX=0;exitY=0.5;exitDx=0;exitDy=0;" parent="1" source="bU0qzXOmjMXZSUoyWyyo-3" edge="1">
                    <mxGeometry relative="1" as="geometry">
                        <mxPoint x="520" y="251" as="sourcePoint"/>
                        <Array as="points">
                            <mxPoint x="440" y="185"/>
                        </Array>
                        <mxPoint x="410" y="185" as="targetPoint"/>
                    </mxGeometry>
                </mxCell>
                <mxCell id="bU0qzXOmjMXZSUoyWyyo-7" value="" style="aspect=fixed;perimeter=ellipsePerimeter;html=1;align=center;shadow=0;dashed=0;fontColor=#4277BB;labelBackgroundColor=#ffffff;fontSize=12;spacingTop=3;image;image=img/lib/ibm/vpc/Bridge.svg;" parent="1" vertex="1">
                    <mxGeometry x="525" y="170" width="20" height="20" as="geometry"/>
                </mxCell>
                <mxCell id="bU0qzXOmjMXZSUoyWyyo-8" value="User Scripts" style="verticalLabelPosition=bottom;html=1;verticalAlign=top;align=center;strokeColor=none;fillColor=#00BEF2;shape=mxgraph.azure.cloud_services_configuration_file;pointerEvents=1;fontSize=5;fontColor=#333333;" parent="1" vertex="1">
                    <mxGeometry x="630" y="229.99999999999997" width="20" height="20" as="geometry"/>
                </mxCell>
            </root>
        </mxGraphModel>
    </diagram>
</mxfile>